<svg viewBox="0 0 756 138" xmlns="http://www.w3.org/2000/svg" xml:space="preserve" fill-rule="evenodd" clip-rule="evenodd" stroke-linejoin="round" stroke-miterlimit="2"><g fill-rule="nonzero"><path d="M416.1 20v2.2l-.5.4-4.8 3.6-.3.3h-51c-3.1 0-4 .9-4 3.6V38q0 5.3-4 7.6 4 2.4 4 7.6V62c0 2.8 1 3.6 4 3.6h23l-6.6 6.5h-16.4q-12.7 0-12.6-10.1v-9c0-3-2.1-6.1-5.5-6.1v-2.8a5 5 0 0 0 3.9-1.8q1.6-1.9 1.6-4.4V30q0-10.1 12.6-10.1zm5.5 70v2.8a5 5 0 0 0-3.9 1.8 7 7 0 0 0-1.6 4.4v8.9q0 10.2-12.6 10.1h-56.6v-2l.5-.5 4.8-3.6.3-.3h51c3.1 0 4-.8 4-3.6v-9q0-5.2 4-7.6-4-2.2-4-7.6v-8c0-2.7-1-3.5-4-3.5h-23l6.6-6.6h16.4q12.7 0 12.6 10.2v7.9c0 3.4 2.5 6.2 5.5 6.2" fill="#ff1f30"/><path d="M421.6 137h-80.2q-.8 0-1.3-.5l-23.8-23.8q-.5-.5-.5-1.2v-85q0-.8.5-1.2l23.8-23.8q.6-.6 1.3-.5h80.2q.8 0 1.3.5l23.8 23.8q.5.4.5 1.2v85q0 .7-.5 1.2l-23.8 23.8q-.6.5-1.3.5m-79.5-3.5h78.8l22.8-22.7V27.2L421 4.5h-78.8l-22.8 22.7v83.6zM35.9 72.4c-1.4-1-5-2.9-14-3.9q-4.4-.3-8.6-1.4c-5.6-1.8-6-6.1-6-7.4 0-1.9.7-8 10.7-8q4.6 0 8.3 2.4h7l-.8-.7a25 25 0 0 0-14.3-3.7Q9 49.7 4 53.1C.7 55.4.1 58 .1 59.7c0 2 0 7.4 15 9.1a42 42 0 0 1 9.9 1.8c5.8 2 6.2 6.3 6.2 7.6q0 8-12.8 8-6.6 0-10.2-2.7H.7l1.7 1.4q5.2 3.4 15.4 3.4 10.3 0 16.2-3.6c3.9-2.4 4.4-4.7 4.4-6.5 0-3.6-1.3-5-2.5-5.9m32.5-2.7h26v-1.2h-26V51.8h30v-2H61.7v38.4h37.4v-2H68.4zm90.4-16.5a18 18 0 0 0-11.9-3.3H123v38.4h7.4v-16h16l7.2 16h7.3l-8.1-15 5-3c2.1-1.2 4.6-3.4 4.6-9q0-5.2-3.6-8m-6.3 14.5a9 9 0 0 1-7 3.2h-15V51.2h15c2.9 0 5.7 1.4 7.3 3.8q2 2.8 2 6.2a10 10 0 0 1-2.3 6.4m51.6 20.6h4.7l13.8-38.4h-7zm-22.3-38.4 13.9 38.4h4.6l-11.5-38.4zm85.5 0 9.8 28.9h-27l9.9-28.9h-4.5l-13.1 38.4h5.5l2.7-7.5h26l2.7 7.5h5.6l-13.1-38.4zm244.4 7.6h7.7a15 15 0 0 0-2.7-3.1q-2.9-2.2-6.4-3.2-4.9-1.5-10-1.4-13.3 0-18.3 6.8a14 14 0 0 0-2.4 8.4V73a13.4 13.4 0 0 0 9.2 13.4q5.3 1.8 11 1.8 5.3 0 10.5-1.4 3.5-1 6.4-3.2 1.6-1.4 2.7-3h-7.7q-1.5 2.2-3.6 3.6a16 16 0 0 1-16.8-.7 11 11 0 0 1-4.3-9.1v-11a11 11 0 0 1 4.4-9c5-3.3 11.4-3.6 16.7-.8q2.2 1.5 3.6 3.6m24.3-3.9h17.5v34.9h6.7v-35h17.4v-3.4H536zm94.9.6q-6-4.2-15.9-4.2a27 27 0 0 0-15.9 4.2c-2 1.5-4.9 4.2-4.9 11v8.3q0 5.4 2.4 8.6 2.6 3.5 6.6 4.8a42 42 0 0 0 23.6 0q4-1.4 6.6-4.8 2.6-3.9 2.4-8.5v-8.6q0-7.3-5-10.8m-2.5 20.5c0 3.5-1.6 6.9-4.4 9a16 16 0 0 1-18 .1 11 11 0 0 1-4.3-9v-11c-.1-3.5 1.5-6.9 4.3-9a16 16 0 0 1 18 0c2.8 2.2 4.4 5.6 4.3 9.1zm64.7-4.2c2-1.2 4.5-3.4 4.5-9q0-5.2-3.5-8a18 18 0 0 0-11.9-3.4h-24v38.4h7.5v-16h16l7 16h7.4l-8-15zm-12.4.6h-15V51.2h15q4.7.1 7.4 3.8a11 11 0 0 1-.3 12.7 9 9 0 0 1-7 3.1m56.6.9-12.5-21.9h-6l15 24.7v13.7h7.2V74.5l15-24.7h-5.8z" fill="#ea001c"/></g></svg>
