<?xml version="1.0" encoding="UTF-8" standalone="no"?>
<!DOCTYPE svg PUBLIC "-//W3C//DTD SVG 1.1//EN" "http://www.w3.org/Graphics/SVG/1.1/DTD/svg11.dtd">
<svg width="100%" height="100%" viewBox="0 0 756 136" version="1.1" xmlns="http://www.w3.org/2000/svg" xmlns:xlink="http://www.w3.org/1999/xlink" xml:space="preserve" xmlns:serif="http://www.serif.com/" style="fill-rule:evenodd;clip-rule:evenodd;stroke-linejoin:round;stroke-miterlimit:2;">
    <g id="_x35_" transform="matrix(1,0,0,1,-122.1,-432)">
        <g>
            <g>
                <g>
                    <path d="M538.1,451L538.1,453.2L537.6,453.6L532.4,457.5L481.5,457.5C478.4,457.5 477.4,458.3 477.4,461.1L477.4,469C477.4,472.6 476.1,475.1 473.5,476.6C476.1,478.2 477.4,480.7 477.4,484.2L477.4,493.1C477.4,495.9 478.4,496.7 481.5,496.7L504.4,496.7L497.9,503.2L481.5,503.2C473,503.2 468.8,499.9 468.8,493.1L468.8,484.2C468.8,481.1 466.7,478 463.3,478L463.3,475.2C465.2,475.2 466.5,474.2 467.2,473.4C468.2,472.2 468.8,470.7 468.8,469L468.8,461.1C468.8,454.3 472.9,451 481.5,451L538.1,451Z" style="fill:rgb(240,213,167);fill-rule:nonzero;"/>
                </g>
                <g>
                    <path d="M543.6,521L543.6,523.8C541.7,523.8 540.4,524.8 539.7,525.6C538.7,526.8 538.1,528.4 538.1,530L538.1,538.9C538.1,545.7 534,549 525.4,549L468.8,549L468.8,546.8L469.3,546.4L474.5,542.5L525.4,542.5C528.5,542.5 529.5,541.7 529.5,538.9L529.5,530C529.5,526.5 530.8,524 533.4,522.4C530.8,520.9 529.5,518.4 529.5,514.8L529.5,506.9C529.5,504.1 528.5,503.3 525.4,503.3L502.5,503.3L509,496.8L525.4,496.8C533.9,496.8 538.1,500.1 538.1,506.9L538.1,514.8C538.1,518.2 540.6,521 543.6,521Z" style="fill:rgb(240,213,167);fill-rule:nonzero;"/>
                </g>
            </g>
            <g>
                <g>
                    <path d="M543.6,568L463.3,568C462.8,568 462.4,567.8 462.1,567.5L438.3,543.7C438,543.4 437.8,542.9 437.8,542.5L437.8,457.5C437.8,457 438,456.6 438.3,456.3L462.1,432.5C462.4,432.2 462.9,432 463.3,432L543.6,432C544.1,432 544.5,432.2 544.8,432.5L568.6,456.3C568.9,456.6 569.1,457.1 569.1,457.5L569.1,542.5C569.1,543 568.9,543.4 568.6,543.7L544.8,567.5C544.5,567.8 544.1,568 543.6,568ZM464.1,564.5L542.9,564.5L565.7,541.7L565.7,458.2L542.9,435.4L464.1,435.4L441.3,458.2L441.3,541.7L464.1,564.5Z" style="fill:rgb(240,213,167);fill-rule:nonzero;"/>
                </g>
            </g>
        </g>
        <g>
            <g>
                <path d="M157.9,503.3C156.5,502.3 152.8,500.5 143.9,499.5C138.4,498.9 136.4,498.4 135.3,498C129.7,496.2 129.2,491.9 129.2,490.6C129.2,488.7 130,482.7 140,482.7C143.3,482.7 146.1,483.5 148.3,485L155.4,485C155.1,484.8 154.8,484.5 154.5,484.3C151,481.9 146.2,480.6 140.2,480.6C134.1,480.6 129.4,481.7 126,484C122.5,486.3 122.1,488.8 122.1,490.6C122.1,492.6 122.1,498 137.2,499.7C143.4,500.4 145.7,501 147,501.4C152.8,503.4 153.2,507.8 153.2,509.1C153.2,514.4 148.9,517.1 140.4,517.1C136,517.1 132.7,516.2 130.2,514.4L122.7,514.4C123.2,514.8 123.8,515.3 124.5,515.8C127.9,518.1 133.1,519.2 139.9,519.2C146.8,519.2 152.2,518 156.1,515.6C160,513.2 160.5,510.9 160.5,509.1C160.4,505.6 159.1,504.2 157.9,503.3Z" style="fill:rgb(240,213,167);fill-rule:nonzero;"/>
            </g>
            <g>
                <path d="M190.4,500.6L216.4,500.6L216.4,499.4L190.4,499.4L190.4,482.8L220.4,482.8L220.4,480.8L183.7,480.8L183.7,519.2L221.1,519.2L221.1,517.2L190.4,517.2L190.4,500.6Z" style="fill:rgb(240,213,167);fill-rule:nonzero;"/>
            </g>
            <g>
                <path d="M280.8,484.1C278.1,481.9 274.1,480.8 269,480.8L245,480.8L245,519.2L252.4,519.2L252.4,503.1L268.3,503.1L275.4,519.2L282.7,519.2L274.6,504.1L279.6,501.2C281.7,500 284.2,497.8 284.2,492.2C284.3,488.7 283.2,486.1 280.8,484.1ZM274.5,498.6C272.8,500.7 270.3,501.8 267.4,501.8L252.4,501.8L252.4,482.2L267.4,482.2C270.5,482.2 273.1,483.5 274.8,486C276,487.8 276.7,489.9 276.7,492.2C276.7,494.6 275.9,496.8 274.5,498.6Z" style="fill:rgb(240,213,167);fill-rule:nonzero;"/>
            </g>
            <g>
                <path d="M326.1,519.2L330.8,519.2L344.7,480.8L337.7,480.8L326.1,519.2Z" style="fill:rgb(240,213,167);fill-rule:nonzero;"/>
            </g>
            <g>
                <path d="M303.8,480.8L317.7,519.2L322.3,519.2L310.8,480.8L303.8,480.8Z" style="fill:rgb(240,213,167);fill-rule:nonzero;"/>
            </g>
            <g>
                <path d="M389.3,480.8L399.1,509.7L372.1,509.7L382,480.8L377.5,480.8L364.4,519.2L369.9,519.2L372.6,511.7L398.6,511.7L401.3,519.2L406.9,519.2L393.8,480.8L389.3,480.8Z" style="fill:rgb(240,213,167);fill-rule:nonzero;"/>
            </g>
        </g>
        <g>
            <path d="M633.7,488.3L641.4,488.3C640.8,487.4 639.9,486.3 638.6,485.2C637.1,484 635,482.9 632.3,482C629.4,481.1 626,480.6 622.3,480.6C613.4,480.6 607.4,482.8 604,487.3C602.4,489.5 601.5,492.3 601.5,495.7L601.5,504C601.5,507.4 602.3,510.2 604,512.4C605.8,514.7 608,516.4 610.8,517.4C614,518.6 617.7,519.2 621.7,519.2C625.8,519.2 629.4,518.7 632.3,517.8C635,516.9 637.2,515.9 638.6,514.6C639.9,513.5 640.7,512.5 641.4,511.6L633.7,511.6C632.7,513.1 631.5,514.3 630.1,515.2C628.1,516.5 625.5,517.2 622.1,517.2C618.6,517.2 615.7,516.3 613.3,514.5C610.5,512.4 608.9,509.2 608.9,505.4L608.9,494.5C608.9,490.8 610.4,487.6 613.3,485.4C615.7,483.6 618.6,482.7 622.1,482.7C625.5,482.7 628.1,483.3 630,484.6C631.5,485.6 632.7,486.9 633.7,488.3Z" style="fill:rgb(240,213,167);fill-rule:nonzero;"/>
        </g>
        <g>
            <path d="M658,484.3L675.5,484.3L675.5,519.2L682.2,519.2L682.2,484.3L699.6,484.3L699.6,480.8L658,480.8L658,484.3Z" style="fill:rgb(240,213,167);fill-rule:nonzero;"/>
        </g>
        <g>
            <path d="M752.9,484.9C749,482.1 743.6,480.7 737,480.7C730.4,480.7 725,482.1 721.1,484.9C719,486.4 716.2,489.1 716.2,495.9L716.2,504.2C716.2,507.8 717,510.6 718.6,512.8C720.3,515.1 722.4,516.6 725.2,517.6C728.4,518.7 732.4,519.3 737,519.3C741.6,519.3 745.5,518.7 748.8,517.6C751.6,516.6 753.7,515.1 755.4,512.8C757,510.6 757.8,507.8 757.8,504.3L757.8,495.7C757.8,490.7 756.2,487.3 752.9,484.9ZM750.4,505.4C750.4,509.1 748.9,512.3 746.1,514.5C743.7,516.3 740.7,517.3 737.1,517.3C733.5,517.3 730.5,516.4 728.1,514.6C725.3,512.5 723.7,509.3 723.7,505.5L723.7,494.6C723.7,490.9 725.2,487.7 728.1,485.5C730.5,483.7 733.5,482.8 737.1,482.8C740.7,482.8 743.7,483.7 746.1,485.6C748.9,487.7 750.4,491 750.4,494.7L750.4,505.4Z" style="fill:rgb(240,213,167);fill-rule:nonzero;"/>
        </g>
        <g>
            <path d="M814.9,501.2C817,500 819.5,497.8 819.5,492.2C819.5,488.6 818.4,486.1 816,484.1C813.3,481.9 809.3,480.8 804.2,480.8L780.2,480.8L780.2,519.2L787.6,519.2L787.6,503.1L803.5,503.1L810.6,519.2L817.9,519.2L809.8,504.1L814.9,501.2ZM802.6,501.8L787.6,501.8L787.6,482.2L802.6,482.2C805.7,482.2 808.3,483.5 810,486C811.3,487.8 811.9,489.9 811.9,492.2C811.9,494.6 811.1,496.9 809.7,498.6C808,500.7 805.4,501.8 802.6,501.8Z" style="fill:rgb(240,213,167);fill-rule:nonzero;"/>
        </g>
        <g>
            <path d="M859.2,502.7L846.8,480.8L840.9,480.8L855.8,505.5L855.8,519.2L863,519.2L863,505.5L877.9,480.8L872.2,480.8L859.2,502.7Z" style="fill:rgb(240,213,167);fill-rule:nonzero;"/>
        </g>
    </g>
</svg>
