<svg id="Слой_1" data-name="Слой 1" xmlns="http://www.w3.org/2000/svg" viewBox="0 0 756 138"><defs><style>.cls-1{fill:#f0d5a7;}</style></defs><title>Servactory-logo-all_types</title><g id="_5" data-name="5"><path class="cls-1" d="M416.14,20v2.17l-.55.42-4.75,3.64-.37.29H359.53c-3.15,0-4.11.84-4.11,3.61V38c0,3.56-1.3,6.08-3.94,7.6,2.62,1.56,3.94,4.1,3.94,7.59v8.9c0,2.78,1,3.62,4.11,3.62h22.9l-6.51,6.52H359.53c-8.53,0-12.67-3.31-12.67-10.14v-8.9c0-3.06-2.06-6.23-5.5-6.23V44.2a5.07,5.07,0,0,0,3.91-1.79A6.57,6.57,0,0,0,346.86,38v-7.9C346.86,23.31,351,20,359.53,20Z"/><path class="cls-1" d="M421.64,90v2.78a5.09,5.09,0,0,0-3.91,1.82A6.8,6.8,0,0,0,416.14,99v8.9c0,6.82-4.14,10.13-12.67,10.13H346.86v-2.16l.55-.42,4.75-3.65.37-.28h50.94c3.15,0,4.11-.85,4.11-3.62V99c0-3.49,1.32-6,3.94-7.6-2.65-1.52-3.94-4-3.94-7.6V75.88c0-2.78-1-3.62-4.11-3.62H380.56l6.51-6.52h16.4c8.53,0,12.67,3.32,12.67,10.14v7.89C416.14,87.24,418.56,90,421.64,90Z"/><path class="cls-1" d="M421.64,137H341.36a1.75,1.75,0,0,1-1.23-.5l-23.81-23.79a1.73,1.73,0,0,1-.51-1.23v-85a1.72,1.72,0,0,1,.51-1.23l23.81-23.8a1.75,1.75,0,0,1,1.23-.5h80.28a1.77,1.77,0,0,1,1.23.5l23.81,23.8a1.72,1.72,0,0,1,.51,1.23v85a1.73,1.73,0,0,1-.51,1.23l-23.81,23.79A1.77,1.77,0,0,1,421.64,137Zm-79.56-3.48h78.84l22.79-22.76V27.24L420.92,4.47H342.08L319.29,27.24v83.53Zm103.37-22h0Z"/><path class="cls-1" d="M35.9,72.35c-1.4-1-5.07-2.82-14-3.82a46.08,46.08,0,0,1-8.63-1.46C7.66,65.3,7.22,61,7.22,59.72c0-1.87.78-7.95,10.82-7.95a14.09,14.09,0,0,1,8.29,2.31h7.06c-.3-.23-.61-.46-.94-.69C29,51,24.18,49.73,18.15,49.73S7.31,50.87,4,53.12s-3.9,4.75-3.9,6.6c0,2,0,7.38,15.06,9.13,6.21.67,8.5,1.26,9.8,1.7,5.79,2,6.24,6.36,6.24,7.67,0,5.31-4.32,8-12.84,8-4.39,0-7.74-.89-10.2-2.72H.66a14.18,14.18,0,0,0,1.78,1.36c3.43,2.26,8.6,3.4,15.39,3.4S30.12,87.07,34,84.7s4.4-4.72,4.4-6.49C38.39,74.6,37.06,73.18,35.9,72.35Z"/><polygon class="cls-1" points="68.42 69.62 94.41 69.62 94.41 68.38 68.42 68.38 68.42 51.84 98.37 51.84 98.37 49.8 61.7 49.8 61.7 88.2 99.09 88.2 99.09 86.16 68.42 86.16 68.42 69.62"/><path class="cls-1" d="M158.76,53.14c-2.72-2.22-6.71-3.34-11.84-3.34H123V88.2h7.44V72.14h16l7.13,16.06h7.29l-8.06-15.07,5-2.91c2.13-1.24,4.58-3.38,4.58-9C162.31,57.67,161.18,55.1,158.76,53.14Zm-6.28,14.47a9,9,0,0,1-7.07,3.21h-15V51.19h15A8.77,8.77,0,0,1,152.82,55a10.84,10.84,0,0,1,1.9,6.2A10,10,0,0,1,152.48,67.61Z"/><polygon class="cls-1" points="204.14 88.2 208.81 88.2 222.65 49.8 215.67 49.8 204.14 88.2"/><polygon class="cls-1" points="181.79 49.8 195.69 88.2 200.29 88.2 188.76 49.8 181.79 49.8"/><polygon class="cls-1" points="267.28 49.8 277.13 78.67 250.13 78.67 259.99 49.8 255.49 49.8 242.39 88.2 247.94 88.2 250.62 80.71 276.64 80.71 279.32 88.2 284.88 88.2 271.78 49.8 267.28 49.8"/><path class="cls-1" d="M511.71,57.35h7.73a14.94,14.94,0,0,0-2.79-3.05,18.58,18.58,0,0,0-6.32-3.19,33.2,33.2,0,0,0-10-1.38c-8.89,0-14.89,2.21-18.32,6.75a13.49,13.49,0,0,0-2.46,8.38v8.28A13.39,13.39,0,0,0,482,81.5a14.37,14.37,0,0,0,6.8,5,31.86,31.86,0,0,0,10.94,1.78,35.43,35.43,0,0,0,10.57-1.38,18.33,18.33,0,0,0,6.35-3.21,15.61,15.61,0,0,0,2.77-3h-7.74a12.84,12.84,0,0,1-3.6,3.63,16.34,16.34,0,0,1-16.76-.76A11.07,11.07,0,0,1,487,74.45V63.55a11.08,11.08,0,0,1,4.36-9.07,16.36,16.36,0,0,1,16.75-.77A12.78,12.78,0,0,1,511.71,57.35Z"/><polygon class="cls-1" points="536.03 53.28 553.46 53.28 553.46 88.2 560.17 88.2 560.17 53.28 577.6 53.28 577.6 49.8 536.03 49.8 536.03 53.28"/><path class="cls-1" d="M630.88,53.89c-3.91-2.76-9.25-4.16-15.87-4.16s-12,1.4-15.87,4.16c-2.1,1.49-4.91,4.25-4.91,11v8.28c0,3.63.79,6.45,2.42,8.64a13.48,13.48,0,0,0,6.59,4.79,41.63,41.63,0,0,0,23.55,0,13.48,13.48,0,0,0,6.59-4.79,13.76,13.76,0,0,0,2.42-8.5V64.72C635.8,59.7,634.24,56.26,630.88,53.89Zm-2.52,20.49a11.18,11.18,0,0,1-4.31,9.07,16.16,16.16,0,0,1-18,.07,11.07,11.07,0,0,1-4.36-9.07V63.55A11.08,11.08,0,0,1,606,54.48a16.14,16.14,0,0,1,18,.08,11.16,11.16,0,0,1,4.31,9.06Z"/><path class="cls-1" d="M692.93,70.22c2.13-1.24,4.57-3.38,4.57-9,0-3.55-1.12-6.12-3.54-8.08-2.73-2.22-6.71-3.34-11.84-3.34h-24V88.2h7.45V72.14h15.94l7.14,16.06H696l-8.06-15.07Zm-12.32.6h-15V51.19h15A8.74,8.74,0,0,1,688,55a10.77,10.77,0,0,1,1.91,6.2,10,10,0,0,1-2.24,6.45A9,9,0,0,1,680.61,70.82Z"/><polygon class="cls-1" points="737.25 71.65 724.77 49.8 718.88 49.8 733.77 74.53 733.77 88.2 740.99 88.2 740.99 74.53 755.93 49.8 750.18 49.8 737.25 71.65"/></g></svg>