<svg viewBox="0 0 756 138" xmlns="http://www.w3.org/2000/svg" xml:space="preserve" fill-rule="evenodd" clip-rule="evenodd" stroke-linejoin="round" stroke-miterlimit="2"><g fill="#f0d5a7" fill-rule="nonzero"><path d="M416.14 20v2.17l-.55.42-4.75 3.64-.37.29h-50.94c-3.15 0-4.11.84-4.11 3.61V38q.01 5.33-3.94 7.6 3.94 2.35 3.94 7.59v8.9c0 2.78 1 3.62 4.11 3.62h22.9l-6.51 6.52h-16.39c-8.53 0-12.67-3.31-12.67-10.14v-8.9c0-3.06-2.06-6.23-5.5-6.23V44.2c1.5.01 2.94-.64 3.91-1.79a6.6 6.6 0 0 0 1.59-4.41v-7.9c0-6.79 4.14-10.1 12.67-10.1zm5.5 70v2.78a5.1 5.1 0 0 0-3.91 1.82 6.8 6.8 0 0 0-1.59 4.4v8.9c0 6.82-4.14 10.13-12.67 10.13h-56.61v-2.16l.55-.42 4.75-3.65.37-.28h50.94c3.15 0 4.11-.85 4.11-3.62V99q0-5.22 3.94-7.6c-2.65-1.52-3.94-4-3.94-7.6v-7.92c0-2.78-1-3.62-4.11-3.62h-22.91l6.51-6.52h16.4c8.53 0 12.67 3.32 12.67 10.14v7.89c0 3.47 2.42 6.23 5.5 6.23"/><path d="M421.64 137h-80.28c-.46 0-.9-.18-1.23-.5l-23.81-23.79a1.7 1.7 0 0 1-.51-1.23v-85c0-.46.18-.9.51-1.23l23.81-23.8c.33-.32.77-.5 1.23-.5h80.28c.46 0 .9.18 1.23.5l23.81 23.8c.33.32.51.77.51 1.23v85c0 .46-.18.9-.51 1.23l-23.81 23.79c-.33.32-.77.5-1.23.5m-79.56-3.48h78.84l22.79-22.76V27.24L420.92 4.47h-78.84l-22.79 22.77v83.53zM35.9 72.35c-1.4-1-5.07-2.82-14-3.82q-4.38-.32-8.63-1.46C7.66 65.3 7.22 61 7.22 59.72c0-1.87.78-7.95 10.82-7.95 2.94-.11 5.84.7 8.29 2.31h7.06l-.94-.69C29 51 24.18 49.73 18.15 49.73S7.31 50.87 4 53.12.1 57.87.1 59.72c0 2 0 7.38 15.06 9.13 6.21.67 8.5 1.26 9.8 1.7 5.79 2 6.24 6.36 6.24 7.67 0 5.31-4.32 8-12.84 8-4.39 0-7.74-.89-10.2-2.72H.66q.84.75 1.78 1.36c3.43 2.26 8.6 3.4 15.39 3.4S30.12 87.07 34 84.7s4.4-4.72 4.4-6.49c-.01-3.61-1.34-5.03-2.5-5.86m32.52-2.73h25.99v-1.24H68.42V51.84h29.95V49.8H61.7v38.4h37.39v-2.04H68.42zm90.34-16.48c-2.72-2.22-6.71-3.34-11.84-3.34H123v38.4h7.44V72.14h16l7.13 16.06h7.29l-8.06-15.07 5-2.91c2.13-1.24 4.58-3.38 4.58-9-.07-3.55-1.2-6.12-3.62-8.08m-6.28 14.47a9 9 0 0 1-7.07 3.21h-15V51.19h15a8.8 8.8 0 0 1 7.41 3.81 11 11 0 0 1 1.9 6.2 10 10 0 0 1-2.24 6.41m51.66 20.59h4.67l13.84-38.4h-6.98zm-22.35-38.4 13.9 38.4h4.6l-11.53-38.4zm85.49 0 9.85 28.87h-27l9.86-28.87h-4.5l-13.1 38.4h5.55l2.68-7.49h26.02l2.68 7.49h5.56l-13.1-38.4zm244.43 7.55h7.73a15 15 0 0 0-2.79-3.05 19 19 0 0 0-6.32-3.19 33 33 0 0 0-10-1.38c-8.89 0-14.89 2.21-18.32 6.75a13.5 13.5 0 0 0-2.46 8.38v8.28A13.4 13.4 0 0 0 482 81.5a14.4 14.4 0 0 0 6.8 5 32 32 0 0 0 10.94 1.78 35 35 0 0 0 10.57-1.38c2.3-.65 4.46-1.74 6.35-3.21a16 16 0 0 0 2.77-3h-7.74a13 13 0 0 1-3.6 3.63 16.4 16.4 0 0 1-16.76-.76 11 11 0 0 1-4.33-9.11v-10.9a11.1 11.1 0 0 1 4.36-9.07 16.4 16.4 0 0 1 16.75-.77c1.43.96 2.66 2.2 3.6 3.64m24.32-4.07h17.43V88.2h6.71V53.28h17.43V49.8h-41.57zm94.85.61c-3.91-2.76-9.25-4.16-15.87-4.16s-12 1.4-15.87 4.16c-2.1 1.49-4.91 4.25-4.91 11v8.28c0 3.63.79 6.45 2.42 8.64a13.5 13.5 0 0 0 6.59 4.79 41.6 41.6 0 0 0 23.55 0 13.5 13.5 0 0 0 6.59-4.79 13.8 13.8 0 0 0 2.42-8.5v-8.59c0-5.02-1.56-8.46-4.92-10.83m-2.52 20.49c.08 3.53-1.52 6.9-4.31 9.07a16.2 16.2 0 0 1-18 .07 11 11 0 0 1-4.36-9.07v-10.9c-.1-3.53 1.5-6.91 4.31-9.07a16.2 16.2 0 0 1 18 .08 11.2 11.2 0 0 1 4.31 9.06zm64.57-4.16c2.13-1.24 4.57-3.38 4.57-9 0-3.55-1.12-6.12-3.54-8.08-2.73-2.22-6.71-3.34-11.84-3.34h-24v38.4h7.45V72.14h15.94l7.14 16.06H696l-8.06-15.07zm-12.32.6h-15V51.19h15A8.8 8.8 0 0 1 688 55a11 11 0 0 1 1.91 6.2 10 10 0 0 1-2.24 6.45 9 9 0 0 1-7.06 3.17m56.64.83L724.77 49.8h-5.89l14.89 24.73V88.2h7.22V74.53l14.94-24.73h-5.75z"/></g></svg>
